<svg xmlns="http://www.w3.org/2000/svg" viewBox="0 0 128 128">
  <rect width="128" height="128" fill="#2d2d2d"/>
  <rect x="20" y="20" width="88" height="88" fill="#4a6741" rx="4"/>
  <rect x="24" y="24" width="80" height="80" fill="#5c8a4f" rx="2"/>
  <!-- Grid lines -->
  <line x1="44" y1="24" x2="44" y2="104" stroke="#4a6741" stroke-width="1"/>
  <line x1="64" y1="24" x2="64" y2="104" stroke="#4a6741" stroke-width="1"/>
  <line x1="84" y1="24" x2="84" y2="104" stroke="#4a6741" stroke-width="1"/>
  <line x1="24" y1="44" x2="104" y2="44" stroke="#4a6741" stroke-width="1"/>
  <line x1="24" y1="64" x2="104" y2="64" stroke="#4a6741" stroke-width="1"/>
  <line x1="24" y1="84" x2="104" y2="84" stroke="#4a6741" stroke-width="1"/>
  <!-- Dice -->
  <rect x="50" y="50" width="28" height="28" fill="#f0f0f0" rx="4" transform="rotate(15 64 64)"/>
  <circle cx="58" cy="58" r="3" fill="#333"/>
  <circle cx="70" cy="58" r="3" fill="#333"/>
  <circle cx="58" cy="70" r="3" fill="#333"/>
  <circle cx="70" cy="70" r="3" fill="#333"/>
  <circle cx="64" cy="64" r="3" fill="#333"/>
  <!-- Miniature base -->
  <ellipse cx="40" cy="80" rx="10" ry="4" fill="#333"/>
  <rect x="36" y="65" width="8" height="15" fill="#c0392b"/>
</svg>
