<svg xmlns="http://www.w3.org/2000/svg" width="48" height="32" fill="#FFFFFF" viewBox="-64 0 384 256">
  <defs>
    <mask id="cutthrough">
      <rect x="-64" y="0" width="384" height="256" fill="white"/>
      <!-- Transparent cut-through line shifted right -->
      <line x1="46" y1="40" x2="222" y2="216" stroke="black" stroke-width="16" stroke-linecap="round"/>
    </mask>
  </defs>
  
  <!-- Apply mask to the toggle path -->
  <path d="M176,56H80a72,72,0,0,0,0,144h96a72,72,0,0,0,0-144Zm0,128H80A56,56,0,0,1,80,72h96a56,56,0,0,1,0,112ZM80,88a40,40,0,1,0,40,40A40,40,0,0,0,80,88Zm0,64a24,24,0,1,1,24-24A24,24,0,0,1,80,152Z" mask="url(#cutthrough)"></path>
  
  <!-- White line on top -->
  <line x1="40" y1="40" x2="216" y2="216" stroke="#FFFFFF" stroke-width="16" stroke-linecap="round"/>
</svg>
